# xmcd CD database file
# Copyright (C) 1993-1998 Ti Kan
# 
# Track frame offsets:
#     150
#     23780
#     37815
#     60105
#     74997
#     95387
#     114917
#     131065
#     144065
#     158377
#     170447
#     187550
#     203612
#     217437
#     231607
#     245285
# 
# Disc length: 3453 seconds
# 
# Revision: 1
# Processed by: cddbd v1.4b41PL1 Copyright (c) Steve Scherf et al.
# Submitted via: DiscPlay 4.0.4
# 
DISCID=d10d7b10
DTITLE=Willie Nelson - Old Five and Dimers Like Me
DYEAR=1900
DGENRE=
TTITLE0=Me and Bobby McGee
TTITLE1=Songwriter
TTITLE2=Till I Gain Control Again
TTITLE3=Would You Lay With Me
TTITLE4=Angel Flying Too Close To The Ground
TTITLE5=Please Come to Boston
TTITLE6=Pretend I Never Happened
TTITLE7=Good Time Charlie's got The Blues
TTITLE8=Heart of Gold
TTITLE9=Railroad Lady
TTITLE10=Wind Beneath My Wings
TTITLE11=When I Dream
TTITLE12=We Had It All
TTITLE13=That's The Way Love Goes
TTITLE14=She's Not For You
TTITLE15=Old Five and Dimers Like Me
EXTD=
EXTT0=
EXTT1=
EXTT2=
EXTT3=
EXTT4=
EXTT5=
EXTT6=
EXTT7=
EXTT8=
EXTT9=
EXTT10=
EXTT11=
EXTT12=
EXTT13=
EXTT14=
EXTT15=
PLAYORDER=
